<svg xmlns="http://www.w3.org/2000/svg" 
     viewBox="0 0 24 24" 
     fill="none">
  <g transform="translate(2.4 2.4) scale(0.8)">
    <path stroke="#FF6B6B" fill="#3A86FF" stroke-width="2"
      stroke-linecap="round" stroke-linejoin="round"
      d="M12.83 2.18a2 2 0 0 0-1.66 0L2.6 6.08a1 1 0 0 0 0 1.83l8.58 3.91a2 2 0 0 0 1.66 0l8.58-3.9a1 1 0 0 0 0-1.83z"/>
      
    <path stroke="#FFA36C" stroke-width="2"
      stroke-linecap="round" stroke-linejoin="round"
      d="M2 12a1 1 0 0 0 .58.91l8.6 3.91a2 2 0 0 0 1.65 0l8.58-3.9A1 1 0 0 0 22 12"/>
      
    <path stroke="#4ECDC4" stroke-width="2"
      stroke-linecap="round" stroke-linejoin="round"
      d="M2 17a1 1 0 0 0 .58.91l8.6 3.91a2 2 0 0 0 1.65 0l8.58-3.9A1 1 0 0 0 22 17"/>
  </g>
</svg>